<svg width="12" height="11" viewBox="0 0 12 11" fill="none" xmlns="http://www.w3.org/2000/svg">
<path d="M5.44221 1.89538L1.60883 5.43039C1.49859 5.53206 1.36955 5.58226 1.22173 5.58101C1.07391 5.57964 0.942469 5.52596 0.827401 5.41996C0.719997 5.31385 0.664379 5.19372 0.660547 5.05957C0.656716 4.92542 0.712334 4.80529 0.827401 4.69918L5.52916 0.363372C5.59862 0.299318 5.67185 0.254184 5.74885 0.227969C5.82585 0.201641 5.90903 0.188477 5.99839 0.188477C6.08774 0.188477 6.17092 0.201641 6.24792 0.227969C6.32492 0.254184 6.39815 0.299318 6.46762 0.363372L11.1694 4.69918C11.2721 4.79389 11.3246 4.91117 11.327 5.05102C11.3293 5.19087 11.2768 5.31385 11.1694 5.41996C11.0543 5.52596 10.9222 5.57896 10.773 5.57896C10.6237 5.57896 10.4915 5.52596 10.3764 5.41996L6.55456 1.89538V9.67558C6.55456 9.82113 6.5013 9.94297 6.39476 10.0411C6.28834 10.1394 6.15622 10.1885 5.99839 10.1885C5.84055 10.1885 5.70843 10.1394 5.60202 10.0411C5.49548 9.94297 5.44221 9.82113 5.44221 9.67558V1.89538Z" fill="white"/>
</svg>
