<svg width="24" height="24" viewBox="0 0 24 24" fill="none" xmlns="http://www.w3.org/2000/svg">
<path d="M7.8606 7.80375V16C7.8606 16.2125 7.78868 16.3906 7.64485 16.5343C7.50101 16.6781 7.32285 16.75 7.11035 16.75C6.89768 16.75 6.7196 16.6781 6.5761 16.5343C6.43243 16.3906 6.3606 16.2125 6.3606 16V6.15375C6.3606 5.89775 6.44726 5.68308 6.6206 5.50975C6.79376 5.33658 7.00843 5.25 7.2646 5.25H17.1106C17.3231 5.25 17.5013 5.32192 17.6451 5.46575C17.7888 5.60958 17.8606 5.78775 17.8606 6.00025C17.8606 6.21292 17.7888 6.391 17.6451 6.5345C17.5013 6.67817 17.3231 6.75 17.1106 6.75H8.91435L18.2376 16.0828C18.3759 16.2213 18.4435 16.3953 18.4403 16.6048C18.4372 16.8144 18.3663 16.9885 18.2278 17.127C18.0895 17.2653 17.9171 17.3345 17.7106 17.3345C17.5043 17.3345 17.3318 17.2653 17.1933 17.127L7.8606 7.80375Z" fill="#A9AFB8"/>
</svg>
