<svg width="24" height="24" viewBox="0 0 24 24" fill="none" xmlns="http://www.w3.org/2000/svg">
<path d="M11.2115 1.40239C11.6003 0.86587 12.3997 0.86587 12.7885 1.40239L13.2943 2.10032C13.593 2.51257 14.1589 2.62512 14.5927 2.35858L15.327 1.90733C15.8915 1.56043 16.6302 1.86638 16.784 2.51084L16.9842 3.34919C17.1025 3.84438 17.5822 4.16492 18.0849 4.08466L18.9361 3.94878C19.5904 3.84432 20.1557 4.40964 20.0512 5.06394L19.9153 5.91507C19.8351 6.41782 20.1556 6.89754 20.6508 7.01578L21.4892 7.21596C22.1336 7.36984 22.4396 8.10846 22.0927 8.67298L21.6414 9.40733C21.3749 9.84109 21.4874 10.407 21.8997 10.7057L22.5976 11.2115C23.1341 11.6003 23.1341 12.3997 22.5976 12.7885L21.8997 13.2943C21.4874 13.593 21.3749 14.1589 21.6414 14.5927L22.0927 15.327C22.4396 15.8915 22.1336 16.6302 21.4892 16.784L20.6508 16.9842C20.1556 17.1025 19.8351 17.5822 19.9153 18.0849L20.0512 18.9361C20.1557 19.5904 19.5904 20.1557 18.9361 20.0512L18.0849 19.9153C17.5822 19.8351 17.1025 20.1556 16.9842 20.6508L16.784 21.4892C16.6302 22.1336 15.8915 22.4396 15.327 22.0927L14.5927 21.6414C14.1589 21.3749 13.593 21.4874 13.2943 21.8997L12.7885 22.5976C12.3997 23.1341 11.6003 23.1341 11.2115 22.5976L10.7057 21.8997C10.407 21.4874 9.84109 21.3749 9.40733 21.6414L8.67298 22.0927C8.10846 22.4396 7.36984 22.1336 7.21596 21.4892L7.01578 20.6508C6.89754 20.1556 6.41782 19.8351 5.91507 19.9153L5.06394 20.0512C4.40964 20.1557 3.84432 19.5904 3.94878 18.9361L4.08466 18.0849C4.16492 17.5822 3.84438 17.1025 3.34919 16.9842L2.51084 16.784C1.86638 16.6302 1.56043 15.8915 1.90733 15.327L2.35858 14.5927C2.62512 14.1589 2.51257 13.593 2.10032 13.2943L1.40239 12.7885C0.86587 12.3997 0.86587 11.6003 1.40239 11.2115L2.10032 10.7057C2.51257 10.407 2.62512 9.84109 2.35858 9.40733L1.90733 8.67298C1.56043 8.10846 1.86638 7.36984 2.51084 7.21596L3.34919 7.01578C3.84438 6.89754 4.16492 6.41782 4.08466 5.91507L3.94878 5.06394C3.84432 4.40964 4.40964 3.84432 5.06394 3.94878L5.91507 4.08466C6.41782 4.16492 6.89754 3.84438 7.01578 3.34919L7.21596 2.51084C7.36984 1.86638 8.10846 1.56043 8.67298 1.90733L9.40733 2.35858C9.84109 2.62512 10.407 2.51257 10.7057 2.10032L11.2115 1.40239Z" fill="#3F8AE3"/>
<path d="M12.9355 9.34424H14.3187L15.6854 11.8977H15.7427L17.1013 9.34424H18.4844L16.3238 13.1581V15.2696H15.0962V13.1581L12.9355 9.34424Z" fill="white"/>
<path d="M6.38672 9.34424H7.90898L9.554 13.3627H9.61948L11.2645 9.34424H12.7868V15.2696H11.5919V11.3903H11.5428L9.99595 15.245H9.17753L7.63072 11.3739H7.58161V15.2696H6.38672V9.34424Z" fill="white"/>
</svg>
