<svg width="24" height="24" viewBox="0 0 24 24" fill="none" xmlns="http://www.w3.org/2000/svg">
<rect x="0.00488281" width="24" height="24" rx="12" fill="#C2D9F5"/>
<path d="M10.3528 14.6934C9.13863 14.6934 8.11042 14.2724 7.26814 13.4305C6.42597 12.5884 6.00488 11.5605 6.00488 10.3467C6.00488 9.13289 6.42597 8.10496 7.26814 7.26291C8.11042 6.42097 9.13863 6 10.3528 6C11.5669 6 12.5951 6.42097 13.4374 7.26291C14.2796 8.10496 14.7007 9.13289 14.7007 10.3467C14.7007 10.8543 14.6155 11.3391 14.4451 11.8012C14.2745 12.2632 14.0471 12.665 13.7627 13.0067L17.8537 17.0966C17.9522 17.1949 18.0026 17.3186 18.0048 17.4676C18.0071 17.6166 17.9567 17.7426 17.8537 17.8456C17.7507 17.9485 17.6259 18 17.479 18C17.3323 18 17.2075 17.9485 17.1045 17.8456L13.0135 13.7557C12.658 14.0491 12.2492 14.2787 11.787 14.4446C11.3249 14.6105 10.8468 14.6934 10.3528 14.6934ZM10.3528 13.6274C11.2689 13.6274 12.0448 13.3095 12.6806 12.6738C13.3164 12.0383 13.6343 11.2625 13.6343 10.3467C13.6343 9.43083 13.3164 8.65512 12.6806 8.01955C12.0448 7.38386 11.2689 7.06602 10.3528 7.06602C9.43666 7.06602 8.66073 7.38386 8.02499 8.01955C7.38912 8.65512 7.07119 9.43083 7.07119 10.3467C7.07119 11.2625 7.38912 12.0383 8.02499 12.6738C8.66073 13.3095 9.43666 13.6274 10.3528 13.6274Z" fill="#3F8AE3"/>
</svg>
