<svg width="24" height="25" viewBox="0 0 24 25" fill="none" xmlns="http://www.w3.org/2000/svg">
<path d="M9.51906 16.1153C7.81139 16.1153 6.36522 15.523 5.18056 14.3385C3.99606 13.1538 3.40381 11.7077 3.40381 10C3.40381 8.29235 3.99606 6.84618 5.18056 5.66152C6.36522 4.47702 7.81139 3.88477 9.51906 3.88477C11.2267 3.88477 12.6729 4.47702 13.8576 5.66152C15.0421 6.84618 15.6343 8.29235 15.6343 10C15.6343 10.7142 15.5145 11.3963 15.2748 12.0463C15.035 12.6963 14.7151 13.2616 14.3151 13.7423L20.0691 19.4963C20.2076 19.6346 20.2784 19.8086 20.2816 20.0183C20.2847 20.2279 20.2139 20.4052 20.0691 20.55C19.9242 20.6948 19.7486 20.7673 19.5421 20.7673C19.3357 20.7673 19.1601 20.6948 19.0153 20.55L13.2613 14.796C12.7613 15.2088 12.1863 15.5319 11.5363 15.7653C10.8863 15.9986 10.2139 16.1153 9.51906 16.1153ZM9.51906 14.6155C10.8076 14.6155 11.8989 14.1683 12.7931 13.274C13.6874 12.3798 14.1346 11.2885 14.1346 10C14.1346 8.71152 13.6874 7.62018 12.7931 6.72601C11.8989 5.83168 10.8076 5.38452 9.51906 5.38452C8.23056 5.38452 7.13922 5.83168 6.24506 6.72601C5.35072 7.62018 4.90356 8.71152 4.90356 10C4.90356 11.2885 5.35072 12.3798 6.24506 13.274C7.13922 14.1683 8.23056 14.6155 9.51906 14.6155Z" fill="#3F8AE3"/>
</svg>
