<svg width="24" height="24" viewBox="0 0 24 24" fill="none" xmlns="http://www.w3.org/2000/svg">
<path d="M8.05508 18.0774L11.9999 15.6979L15.9448 18.1087L14.9116 13.6003L18.3868 10.5947L13.8158 10.1877L11.9999 5.92974L10.184 10.1564L5.61303 10.5634L9.08825 13.6003L8.05508 18.0774ZM11.9999 17.1719L7.45302 19.9174C7.31965 19.9831 7.19598 20.0096 7.08202 19.9969C6.96805 19.9839 6.85733 19.9446 6.74984 19.8788C6.64213 19.8129 6.56021 19.7186 6.50406 19.5958C6.44792 19.4731 6.44312 19.3402 6.48966 19.1973L7.69879 14.0505L3.69853 10.5803C3.58602 10.4886 3.51172 10.3791 3.47561 10.2515C3.4395 10.1238 3.44712 10.0014 3.49847 9.88429C3.54981 9.76699 3.6189 9.6714 3.70573 9.59751C3.79235 9.52383 3.90954 9.47405 4.05732 9.44817L9.33622 8.98825L11.3954 4.11386C11.4515 3.97568 11.533 3.87612 11.6399 3.81518C11.7467 3.75423 11.8668 3.72375 11.9999 3.72375C12.1331 3.72375 12.2531 3.75423 12.36 3.81518C12.4668 3.87612 12.5483 3.97568 12.6045 4.11386L14.6636 8.98825L19.9425 9.44817C20.0903 9.47405 20.2075 9.52383 20.2941 9.59751C20.381 9.6714 20.45 9.76699 20.5014 9.88429C20.5527 10.0014 20.5604 10.1238 20.5242 10.2515C20.4881 10.3791 20.4138 10.4886 20.3013 10.5803L16.3011 14.0505L17.5102 19.1973C17.5567 19.3402 17.5519 19.4731 17.4958 19.5958C17.4396 19.7186 17.3577 19.8129 17.25 19.8788C17.1425 19.9446 17.0318 19.9839 16.9178 19.9969C16.8039 20.0096 16.6802 19.9831 16.5468 19.9174L11.9999 17.1719Z" fill="#A9AFB8"/>
</svg>
