<svg width="24" height="24" viewBox="0 0 24 24" fill="none" xmlns="http://www.w3.org/2000/svg">
<rect x="2" y="2" width="20" height="20" rx="2" fill="#EFF3F6"/>
<path d="M2 4C2 2.89543 2.89543 2 4 2H20C21.1046 2 22 2.89543 22 4V8H2V4Z" fill="#FF6B6B"/>
<circle cx="7" cy="5" r="1" fill="#FFB7B7"/>
<circle cx="17" cy="5" r="1" fill="#FFB7B7"/>
<path d="M6.00293 13.0605V13.7109H5.40527V15.2637C5.40527 15.5156 5.52832 15.5801 5.7041 15.5859C5.79199 15.5859 5.94434 15.5801 6.0498 15.5684V16.2539C5.95605 16.2715 5.80371 16.2832 5.58691 16.2832C4.95996 16.2832 4.53223 16.002 4.53809 15.3867V13.7109H4.09863V13.0605H4.53809V12.2988H5.40527V13.0605H6.00293Z" fill="#595E69"/>
<path d="M7.94238 16.3066C6.98145 16.3066 6.38379 15.6445 6.38379 14.6602C6.38379 13.6758 6.98145 13.0195 7.94238 13.0195C8.90332 13.0195 9.50684 13.6758 9.50684 14.6602C9.50684 15.6445 8.90332 16.3066 7.94238 16.3066ZM7.94824 15.6328C8.39355 15.6328 8.62207 15.2168 8.62207 14.6602C8.62207 14.0977 8.39355 13.6816 7.94824 13.6816C7.49707 13.6816 7.2627 14.0977 7.2627 14.6602C7.2627 15.2168 7.49707 15.6328 7.94824 15.6328Z" fill="#595E69"/>
<path d="M11.2236 16.2949C10.4971 16.2949 9.92871 15.7148 9.92871 14.6543C9.92871 13.5645 10.5205 13.0195 11.2236 13.0195C11.7568 13.0195 12.0088 13.3359 12.126 13.5938H12.1553V12H13.0225V16.2422H12.167V15.7324H12.126C12.0029 15.9961 11.7393 16.2949 11.2236 16.2949ZM11.4932 15.6035C11.9268 15.6035 12.1729 15.2227 12.1729 14.6484C12.1729 14.0742 11.9268 13.7109 11.4932 13.7109C11.0537 13.7109 10.8193 14.0918 10.8193 14.6484C10.8193 15.2109 11.0537 15.6035 11.4932 15.6035Z" fill="#595E69"/>
<path d="M13.5674 15.3516C13.5674 14.6426 14.1416 14.4082 14.751 14.373C14.9795 14.3584 15.4072 14.3379 15.542 14.332V14.0742C15.5361 13.8105 15.3545 13.6523 15.0322 13.6523C14.7393 13.6523 14.5518 13.7871 14.5049 14.0039H13.6787C13.7314 13.4531 14.2119 13.0195 15.0557 13.0195C15.7471 13.0195 16.4033 13.3301 16.4033 14.0977V16.2422H15.583V15.8027H15.5596C15.4014 16.0957 15.1025 16.3008 14.6279 16.3008C14.0186 16.3008 13.5674 15.9844 13.5674 15.3516ZM14.3994 15.3281C14.3994 15.5742 14.5986 15.7031 14.874 15.7031C15.2666 15.7031 15.5479 15.4395 15.542 15.1055V14.8711C15.4102 14.877 15.041 14.8975 14.8916 14.9121C14.5928 14.9414 14.3994 15.082 14.3994 15.3281Z" fill="#595E69"/>
<path d="M17.458 17.4375C17.2881 17.4375 17.1299 17.4316 17.0186 17.4199V16.7461C17.1299 16.752 17.2588 16.7578 17.3701 16.7578C17.54 16.7578 17.6807 16.7402 17.7861 16.4648L17.8389 16.3301L16.6963 13.0605H17.6045L18.2725 15.4043H18.3076L18.9814 13.0605H19.9014L18.6592 16.5938C18.4775 17.1035 18.1318 17.4375 17.458 17.4375Z" fill="#595E69"/>
</svg>
